<svg xmlns="http://www.w3.org/2000/svg" xmlns:xlink="http://www.w3.org/1999/xlink" width="500" zoomAndPan="magnify" viewBox="0 0 375 374.999991" height="500" preserveAspectRatio="xMidYMid meet" version="1.0"><defs><clipPath id="ce44c98481"><path d="M 45.355469 97.71875 L 286.855469 97.71875 L 286.855469 266.46875 L 45.355469 266.46875 Z M 45.355469 97.71875 " clip-rule="nonzero"/></clipPath><clipPath id="e244ccab66"><path d="M 80.984375 97.71875 L 322.484375 97.71875 L 322.484375 266.46875 L 80.984375 266.46875 Z M 80.984375 97.71875 " clip-rule="nonzero"/></clipPath><clipPath id="e2db258caf"><path d="M 23.265625 97.71875 L 264.765625 97.71875 L 264.765625 266.46875 L 23.265625 266.46875 Z M 23.265625 97.71875 " clip-rule="nonzero"/></clipPath></defs><g clip-path="url(#ce44c98481)"><path fill="#000000" d="M 189.683594 97.839844 C 158.910156 97.839844 135.433594 104.945312 119.304688 119.105469 C 108.128906 128.921875 100.78125 142.011719 97.359375 158.320312 L 136.199219 158.320312 C 138.597656 151.113281 142.320312 145.285156 147.324219 140.835938 C 156.96875 132.296875 171.921875 128.054688 192.183594 128.054688 L 260.621094 128.054688 L 277.820312 97.839844 Z M 45.355469 171.253906 L 63.933594 201.472656 L 249.753906 201.472656 L 249.753906 236.085938 L 182.945312 236.085938 L 182.945312 235.878906 C 166.5625 235.113281 154.113281 230.410156 145.589844 221.820312 C 143.445312 219.671875 141.609375 217.21875 139.976562 214.457031 L 99.503906 214.457031 C 103.382812 226.832031 109.8125 237.054688 118.792969 245.082031 C 134.667969 259.246094 156.714844 266.351562 185.039062 266.351562 L 286.855469 266.351562 L 286.855469 171.253906 Z M 45.355469 171.253906 " fill-opacity="1" fill-rule="nonzero"/></g><g clip-path="url(#e244ccab66)"><path fill="#000000" d="M 225.3125 97.839844 C 194.539062 97.839844 171.0625 104.945312 154.9375 119.105469 C 143.757812 128.921875 136.410156 142.011719 132.992188 158.320312 L 171.828125 158.320312 C 174.226562 151.113281 177.953125 145.285156 182.953125 140.835938 C 192.601562 132.296875 207.554688 128.054688 227.816406 128.054688 L 296.253906 128.054688 L 313.453125 97.839844 Z M 80.984375 171.253906 L 99.5625 201.472656 L 285.382812 201.472656 L 285.382812 236.085938 L 218.578125 236.085938 L 218.578125 235.878906 C 202.195312 235.113281 189.742188 230.410156 181.21875 221.820312 C 179.078125 219.671875 177.238281 217.21875 175.605469 214.457031 L 135.132812 214.457031 C 139.011719 226.832031 145.445312 237.054688 154.425781 245.082031 C 170.296875 259.246094 192.34375 266.351562 220.671875 266.351562 L 322.484375 266.351562 L 322.484375 171.253906 Z M 80.984375 171.253906 " fill-opacity="1" fill-rule="nonzero"/></g><g clip-path="url(#e2db258caf)"><path fill="#000000" d="M 167.59375 97.839844 C 136.816406 97.839844 113.339844 104.945312 97.214844 119.105469 C 86.039062 128.921875 78.6875 142.011719 75.269531 158.320312 L 114.105469 158.320312 C 116.503906 151.113281 120.230469 145.285156 125.234375 140.835938 C 134.878906 132.296875 149.832031 128.054688 170.09375 128.054688 L 238.53125 128.054688 L 255.730469 97.839844 Z M 23.265625 171.253906 L 41.839844 201.472656 L 227.660156 201.472656 L 227.660156 236.085938 L 160.855469 236.085938 L 160.855469 235.878906 C 144.472656 235.113281 132.019531 230.410156 123.496094 221.820312 C 121.355469 219.671875 119.515625 217.21875 117.882812 214.457031 L 77.414062 214.457031 C 81.292969 226.832031 87.722656 237.054688 96.703125 245.082031 C 112.574219 259.246094 134.625 266.351562 162.949219 266.351562 L 264.765625 266.351562 L 264.765625 171.253906 Z M 23.265625 171.253906 " fill-opacity="1" fill-rule="nonzero"/></g></svg>